<?xml version="1.0" encoding="UTF-8" standalone="no"?>
<!-- Created with Inkscape (http://www.inkscape.org/) -->

<svg
   width="512"
   height="512"
   viewBox="0 0 512 512"
   version="1.1"
   id="svg1"
   xmlns="http://www.w3.org/2000/svg"
   xmlns:svg="http://www.w3.org/2000/svg">
  <defs
     id="defs1" />
  <g
     id="layer1">
    <path
       d="M 365.07617,140.19922 A 208,136 0 0 1 464,256 208,136 0 0 1 365.07617,371.80078 256,128 0 0 0 512,256 256,128 0 0 0 365.07617,140.19922 Z"
       style="fill:#ffffff;stroke-width:3.56054;stroke-linejoin:round"
       id="path6" />
    <path
       d="M 146.92383,371.80078 A 208,136 0 0 1 48,256 208,136 0 0 1 146.92383,140.19922 256,128 0 0 0 0,256 256,128 0 0 0 146.92383,371.80078 Z"
       style="fill:#ffffff;stroke-width:3.56054;stroke-linejoin:round"
       id="path5" />
    <path
       d="M 310.53809,198.09961 A 104,68 0 0 1 360,256 104,68 0 0 1 310.53809,313.90039 128,64 0 0 0 384,256 128,64 0 0 0 310.53809,198.09961 Z"
       style="fill:#ffffff;stroke-width:1.78027;stroke-linejoin:round"
       id="path6-3" />
    <path
       d="M 201.46191,313.90039 A 104,68 0 0 1 152,256 104,68 0 0 1 201.46191,198.09961 128,64 0 0 0 128,256 a 128,64 0 0 0 73.46191,57.90039 z"
       style="fill:#ffffff;stroke-width:1.78027;stroke-linejoin:round"
       id="path5-7" />
  </g>
</svg>
